# xmcd
#
# Track frame offsets:
#	150
#	18526
#	34202
#	51380
#	69307
#	87084
#	105387
#	122639
#	138617
#	155418
#	171320
#	187822
#	203800
#	220092
#	237869
#	266821
#
# Disc length: 3572 seconds
#
# Revision: 0
# Processed by: cddbd v1.5.1PL0 Copyright (c) Steve Scherf et al.
# Submitted via: audiograbber 1.83.01
#
DISCID=e00df210
DTITLE=Chartbuster Karaoke - CB60324
DYEAR=2004
DGENRE=Country
TTITLE0=CB60324-01 - Chesney, Kenny - I Go Back
TTITLE1=CB60324-02 - Cotter, Brad - I Meant To
TTITLE2=CB60324-03 - Jewel, Buddy - One Step At A Time
TTITLE3=CB60324-04 - Evans, Sara - Suds In The Bucket
TTITLE4=CB60324-05 - Bentley, Dierks - How Am I Doin'
TTITLE5=CB60324-06 - Black, Clint - Boogie Man, The
TTITLE6=CB60324-07 - Emerick, Scotty - Watch, The
TTITLE7=CB60324-08 - Johnson, Carolyn Dawn - Die Of A Broken Heart
TTITLE8=CB60324-09 - Blue County - That's Cool
TTITLE9=CB60324-10 - Holy, Steve - Put Your Best Dress On
TTITLE10=CB60324-11 - Vassar, Phil - In A Real Love
TTITLE11=CB60324-12 - Brokop, Lisa - Wildflower
TTITLE12=CB60324-13 - Big and Rich - Save A Horse (Ride A Cowboy)
TTITLE13=CB60324-14 - Carpenter, Mary Chapin - What Would You Say To Me
TTITLE14=CB60324-15 - Hughes, Jedd - High Lonesome 
TTITLE15=blank
EXTD=
EXTT0=
EXTT1=
EXTT2=
EXTT3=
EXTT4=
EXTT5=
EXTT6=
EXTT7=
EXTT8=
EXTT9=
EXTT10=
EXTT11=
EXTT12=
EXTT13=
EXTT14=
EXTT15=
PLAYORDER=
